<?xml version="1.0" standalone="no"?>
<!DOCTYPE svg PUBLIC "-//W3C//DTD SVG 20010904//EN"
 "http://www.w3.org/TR/2001/REC-SVG-20010904/DTD/svg10.dtd">
<svg version="1.0" xmlns="http://www.w3.org/2000/svg"
 width="240.000000pt" height="221.000000pt" viewBox="0 0 240.000000 221.000000"
 preserveAspectRatio="xMidYMid meet">
<metadata>
Created by potrace 1.16, written by Peter Selinger 2001-2019
</metadata>
<g transform="translate(0.000000,221.000000) scale(0.100000,-0.100000)"
fill="#000000" stroke="none">
<path d="M0 1105 l0 -1105 1200 0 1200 0 0 1105 0 1105 -1200 0 -1200 0 0
-1105z m1005 759 l199 -195 196 196 195 195 200 0 c227 0 384 -10 345 -21 -24
-7 -24 -7 -2 -8 18 -1 22 -7 23 -33 l1 -33 7 30 c7 29 8 28 14 -15 21 -136 26
-328 26 -1043 l1 -787 -272 2 -273 3 -3 405 -2 405 -191 191 c-131 131 -188
195 -183 205 3 7 31 36 61 63 l54 50 215 -215 215 -215 -1 -357 0 -357 105 0
105 0 0 780 0 780 -182 -1 -183 0 -463 -457 -462 -457 0 -412 0 -413 -272 3
-273 2 -3 953 -2 952 302 0 303 -1 200 -195z m165 -954 l0 -90 -90 0 -90 0 0
90 0 90 90 0 90 0 0 -90z m250 0 l0 -90 -90 0 -90 0 0 90 0 90 90 0 90 0 0
-90z m-250 -240 l0 -90 -90 0 -90 0 0 90 0 90 90 0 90 0 0 -90z m250 1 l0 -90
-90 -3 -90 -3 0 93 0 92 90 0 90 0 0 -89z"/>
<path d="M372 1108 l3 -783 30 -3 c17 -2 63 -1 103 3 l72 7 0 499 0 499 85 0
85 0 0 -57 0 -58 160 160 c88 88 160 164 160 170 0 6 -75 86 -168 178 l-167
167 -183 0 -182 0 2 -782z"/>
</g>
</svg>
